<svg width="100" height="100" viewBox="0 0 100 100" fill="none" xmlns="http://www.w3.org/2000/svg">
<path d="M25.5 5H7C5.89543 5 5 5.89543 5 7V25.5C5 26.6046 5.89543 27.5 7 27.5H25.5C26.6046 27.5 27.5 26.6046 27.5 25.5V7C27.5 5.89543 26.6046 5 25.5 5Z" fill="white"/>
<path d="M59.25 5H40.75C39.6454 5 38.75 5.89543 38.75 7V25.5C38.75 26.6046 39.6454 27.5 40.75 27.5H59.25C60.3546 27.5 61.25 26.6046 61.25 25.5V7C61.25 5.89543 60.3546 5 59.25 5Z" fill="white"/>
<path d="M93 5H74.5C73.3954 5 72.5 5.89543 72.5 7V25.5C72.5 26.6046 73.3954 27.5 74.5 27.5H93C94.1046 27.5 95 26.6046 95 25.5V7C95 5.89543 94.1046 5 93 5Z" fill="white"/>
<path d="M25.5 38.75H7C5.89543 38.75 5 39.6454 5 40.75V59.25C5 60.3546 5.89543 61.25 7 61.25H25.5C26.6046 61.25 27.5 60.3546 27.5 59.25V40.75C27.5 39.6454 26.6046 38.75 25.5 38.75Z" fill="white"/>
<path d="M59.25 38.75H40.75C39.6454 38.75 38.75 39.6454 38.75 40.75V59.25C38.75 60.3546 39.6454 61.25 40.75 61.25H59.25C60.3546 61.25 61.25 60.3546 61.25 59.25V40.75C61.25 39.6454 60.3546 38.75 59.25 38.75Z" fill="white"/>
<path d="M93 38.75H74.5C73.3954 38.75 72.5 39.6454 72.5 40.75V59.25C72.5 60.3546 73.3954 61.25 74.5 61.25H93C94.1046 61.25 95 60.3546 95 59.25V40.75C95 39.6454 94.1046 38.75 93 38.75Z" fill="white"/>
<path d="M25.5 72.5H7C5.89543 72.5 5 73.3954 5 74.5V93C5 94.1046 5.89543 95 7 95H25.5C26.6046 95 27.5 94.1046 27.5 93V74.5C27.5 73.3954 26.6046 72.5 25.5 72.5Z" fill="white"/>
<path d="M59.25 72.5H40.75C39.6454 72.5 38.75 73.3954 38.75 74.5V93C38.75 94.1046 39.6454 95 40.75 95H59.25C60.3546 95 61.25 94.1046 61.25 93V74.5C61.25 73.3954 60.3546 72.5 59.25 72.5Z" fill="white"/>
<path d="M93 72.5H74.5C73.3954 72.5 72.5 73.3954 72.5 74.5V93C72.5 94.1046 73.3954 95 74.5 95H93C94.1046 95 95 94.1046 95 93V74.5C95 73.3954 94.1046 72.5 93 72.5Z" fill="white"/>
</svg>
