<svg width="16" height="21" viewBox="0 0 16 21" fill="none" xmlns="http://www.w3.org/2000/svg">
<path opacity="0.25" d="M8.37946 0C8.96514 0.1071 9.56152 0.1743 10.1387 0.3276C11.9313 0.80317 13.4972 1.88182 14.5632 3.37547C15.6293 4.86912 16.1278 6.68299 15.972 8.5008C15.8545 9.87 15.3094 11.13 14.6703 12.3312C13.174 15.1599 11.1625 17.6253 8.99934 19.9773C8.71078 20.2923 8.40724 20.5968 8.11012 20.9034C8.06052 20.9403 8.00757 20.9726 7.95195 21C7.22518 20.1999 6.4749 19.4103 5.76524 18.5871C3.93977 16.485 2.26821 14.28 1.05622 11.7789C0.429919 10.4853 -0.0125536 9.1476 0.00027172 7.6797C0.0579855 4.0467 2.871 0.7875 6.51765 0.1722C6.88531 0.1092 7.25511 0.0567 7.6249 0H8.37732H8.37946ZM8.00111 2.6754C6.94794 2.67374 5.91791 2.97883 5.04118 3.55212C4.16445 4.1254 3.48037 4.94114 3.07539 5.89625C2.67041 6.85137 2.56271 7.90299 2.76589 8.91822C2.96908 9.93345 3.47403 10.8667 4.21694 11.6001C4.95985 12.3335 5.90738 12.8341 6.93977 13.0386C7.97216 13.2431 9.04309 13.1423 10.0172 12.749C10.9914 12.3558 11.825 11.6877 12.4127 10.8291C13.0004 9.97053 13.3159 8.96006 13.3193 7.9254C13.3227 7.23715 13.1876 6.55503 12.9219 5.91822C12.6561 5.2814 12.2649 4.70245 11.7708 4.21461C11.2766 3.72677 10.6892 3.33966 10.0422 3.07551C9.39533 2.81137 8.70167 2.67539 8.00111 2.6754V2.6754Z" fill="#16325C"/>
</svg>
