<svg width="18" height="19" viewBox="0 0 18 19" fill="none" xmlns="http://www.w3.org/2000/svg">
<g opacity="0.25">
<rect y="10.1428" width="3.42857" height="4" fill="#16325C"/>
<rect x="4.57227" y="10.1428" width="3.42857" height="4" fill="#16325C"/>
<rect x="9.14258" y="10.1428" width="3.42857" height="4" fill="#16325C"/>
<rect x="13.7129" y="10.1428" width="3.42857" height="4" fill="#16325C"/>
<rect y="4.71436" width="3.42857" height="4" fill="#16325C"/>
<rect x="4.57227" y="4.71436" width="3.42857" height="4" fill="#16325C"/>
<rect x="9.14258" y="4.71436" width="3.42857" height="4" fill="#16325C"/>
<rect x="13.7129" y="4.71436" width="3.42857" height="4" fill="#16325C"/>
<rect x="4.57227" y="15" width="3.42857" height="4" fill="#16325C"/>
<rect x="9.14258" y="15" width="3.42857" height="4" fill="#16325C"/>
<rect x="13.7129" y="15" width="3.42857" height="4" fill="#16325C"/>
<path d="M0 3.57143C0 2.15127 1.15127 1 2.57143 1H14.5714C15.9916 1 17.1429 2.15127 17.1429 3.57143H0Z" fill="#16325C"/>
<rect x="3" width="2" height="3" fill="#16325C"/>
<rect x="12" width="2" height="3" fill="#16325C"/>
</g>
</svg>
