<svg width="25" height="25" viewBox="0 0 25 25" fill="none" xmlns="http://www.w3.org/2000/svg">
<path d="M18.466 17.2126C16.8553 15.7556 15.2443 14.2986 13.6336 12.8416C13.405 12.6339 13.1764 12.4264 12.9477 12.2189C13.0469 12.4309 13.1414 12.6429 13.2409 12.8549C13.2409 11.1904 13.2409 9.52597 13.2409 7.86575C13.2409 7.6266 13.2409 7.39197 13.2409 7.1531C13.2409 6.67932 12.7837 6.22818 12.2466 6.25082C11.7098 6.27346 11.2522 6.6479 11.2522 7.1531C11.2522 8.98455 11.2522 10.816 11.2522 12.6474C11.2522 12.7196 11.2472 12.7873 11.2522 12.8594C11.2672 13.1439 11.4016 13.3737 11.6153 13.5633C11.8689 13.7934 12.1224 14.0235 12.381 14.2533C13.3005 15.0834 14.2153 15.9135 15.1352 16.7437C15.7764 17.3255 16.4227 17.9074 17.064 18.4893C17.4317 18.8233 18.1079 18.8502 18.471 18.4893C18.8288 18.1285 18.8587 17.5692 18.466 17.2126Z" fill="white"/>
<path d="M21.9528 12.5014C21.9528 12.7526 21.9438 13.0035 21.9258 13.2546C21.9168 13.3801 21.9078 13.501 21.8946 13.6267C21.8901 13.6714 21.8946 13.7702 21.8721 13.8104C21.8901 13.6759 21.8946 13.6534 21.8811 13.7567C21.8766 13.7969 21.8676 13.8374 21.8631 13.8776C21.7869 14.3574 21.6795 14.8324 21.5361 15.2988C21.4731 15.5094 21.4014 15.7156 21.3207 15.9217C21.2805 16.025 21.249 16.1594 21.1908 16.2536C21.3165 16.061 21.2133 16.1954 21.1863 16.2581C21.155 16.3298 21.1191 16.4015 21.0878 16.4733C20.8859 16.8991 20.6531 17.3159 20.393 17.7105C20.2631 17.9076 20.1287 18.1006 19.9852 18.2887C19.9312 18.3605 19.9762 18.365 20.0164 18.2485C20.003 18.2932 19.9357 18.3515 19.909 18.3875C19.8238 18.4949 19.7341 18.5981 19.6444 18.7011C19.3354 19.0554 19.0036 19.387 18.645 19.6919C18.5553 19.7681 18.4656 19.8443 18.3762 19.9161C18.3402 19.9476 18.282 20.0103 18.2373 20.0235C18.2685 20.0013 18.2955 19.9788 18.3267 19.9563C18.2955 19.9788 18.264 20.0058 18.2328 20.028C18.0444 20.1672 17.8517 20.3017 17.6543 20.4316C17.2556 20.687 16.8433 20.9156 16.4128 21.1176C16.3591 21.1443 16.3054 21.1668 16.2517 21.1893C16.1887 21.216 16.0543 21.3192 16.2472 21.1935C16.153 21.2565 16.0186 21.2877 15.9154 21.3237C15.6735 21.4132 15.4269 21.4984 15.1758 21.5701C14.7098 21.709 14.2346 21.8078 13.7507 21.8795C13.5355 21.911 13.9613 21.857 13.7462 21.8795C13.7057 21.884 13.6655 21.8885 13.625 21.893C13.4995 21.9065 13.3786 21.9155 13.2532 21.9245C12.9796 21.9422 12.7063 21.9512 12.4329 21.9512C12.1818 21.9512 11.9355 21.9377 11.6844 21.92C11.55 21.911 11.4155 21.8975 11.2808 21.8795C11.2271 21.875 11.012 21.8705 11.2541 21.875C11.1689 21.875 11.0747 21.8483 10.9895 21.8348C10.4699 21.745 9.95863 21.6196 9.46118 21.4537C9.34026 21.4134 9.21485 21.3684 9.09365 21.3237C9.03094 21.3012 8.97272 21.2787 8.91451 21.252C8.87402 21.234 8.6634 21.1578 8.88752 21.243C8.6499 21.1533 8.41707 21.0323 8.18845 20.9156C7.73571 20.6825 7.29647 20.4091 6.88394 20.1132C6.83023 20.0775 6.78102 20.037 6.73181 20.0013C6.5524 19.8713 6.88394 20.1222 6.70931 19.9878C6.61061 19.9071 6.51219 19.8263 6.41349 19.7456C6.22058 19.58 6.03246 19.4095 5.85333 19.2301C5.67392 19.0509 5.49901 18.867 5.32888 18.6743C5.24368 18.5801 5.16297 18.4814 5.08227 18.383C5.04206 18.3337 4.99706 18.2842 4.96135 18.235C5.10027 18.4412 4.93885 18.2035 4.90736 18.1633C4.60732 17.7507 4.3337 17.3159 4.09609 16.8634C3.97067 16.6212 3.84975 16.3745 3.74205 16.1237C3.82276 16.3163 3.72434 16.0787 3.71534 16.0519C3.68834 15.9802 3.66134 15.9085 3.63463 15.8368C3.57192 15.6664 3.51343 15.4959 3.45972 15.3213C3.37452 15.0476 3.30281 14.7697 3.2401 14.4874C3.20439 14.3349 3.17739 14.178 3.1504 14.021C3.13718 13.9448 3.12368 13.8641 3.11468 13.7882C3.10119 13.6804 3.10119 13.6849 3.11468 13.7882C3.11019 13.7342 3.10119 13.6804 3.09669 13.6312C3.03398 13.0485 3.02048 12.4567 3.05647 11.874C3.06547 11.7482 3.07419 11.6273 3.08319 11.5019C3.08769 11.4392 3.09669 11.3807 3.10119 11.3179C3.11019 11.2417 3.08769 11.0803 3.10119 11.3134C3.08769 11.0893 3.18189 10.8114 3.2266 10.5917C3.32531 10.1212 3.45972 9.6549 3.62563 9.20209C3.66584 9.09015 3.71084 8.97793 3.75555 8.86599C3.76455 8.84799 3.76905 8.82999 3.77804 8.81199C3.81376 8.72255 3.80926 8.74027 3.75555 8.86149C3.75555 8.82099 3.80926 8.73577 3.82726 8.70005C3.92596 8.48489 4.02888 8.26974 4.14108 8.06358C4.3697 7.63749 4.62503 7.22967 4.91186 6.84408C4.93886 6.80386 4.97035 6.76336 5.00156 6.72764C5.12248 6.5617 4.87615 6.88458 5.00606 6.72314C5.08227 6.63342 5.15397 6.5392 5.23018 6.44977C5.39609 6.25683 5.56622 6.06867 5.74563 5.88473C5.89804 5.73229 6.05045 5.58436 6.21186 5.44092C6.29679 5.3647 6.38649 5.28426 6.4762 5.21254C6.52091 5.17654 6.5659 5.13632 6.61061 5.10032C6.64211 5.07782 6.67332 5.0511 6.70032 5.0286C6.77652 4.97038 6.76302 4.97938 6.6601 5.0601C6.77652 4.91217 7.02736 4.78645 7.18427 4.68351C7.39489 4.54007 7.61451 4.40563 7.83413 4.27991C8.02254 4.17247 8.21516 4.07376 8.40807 3.97504C8.51549 3.92132 8.62319 3.8721 8.73061 3.8226C8.79332 3.79588 8.92802 3.69266 8.73511 3.81838C8.79782 3.77788 8.88752 3.75538 8.95473 3.72866C9.40297 3.55372 9.86471 3.41029 10.3307 3.29835C10.5683 3.23985 10.8059 3.19513 11.048 3.15491C11.1107 3.14591 11.1689 3.13691 11.2316 3.12791C11.4378 3.09641 11.0702 3.14591 11.2091 3.13241C11.3438 3.11891 11.4738 3.10091 11.6082 3.09191C12.1593 3.04719 12.7108 3.04269 13.2574 3.08319C13.4098 3.09641 13.5623 3.10991 13.7147 3.12791C13.9703 3.15491 13.5265 3.09641 13.7774 3.13691C13.8536 3.15041 13.9253 3.15941 14.0015 3.17263C14.3108 3.22663 14.6156 3.29385 14.9205 3.37457C15.1938 3.44628 15.4671 3.53122 15.7362 3.62994C15.8752 3.67916 16.0141 3.73316 16.1485 3.78688C16.3771 3.8766 15.9826 3.71066 16.2067 3.80938C16.2964 3.8496 16.3861 3.8901 16.4758 3.93032C17.0045 4.18148 17.5067 4.47735 17.9862 4.81345C18.0936 4.88967 18.2058 4.96138 18.3045 5.0466C18.2865 5.0286 18.1521 4.92538 18.2775 5.0286C18.3267 5.06882 18.3807 5.10932 18.4299 5.15404C18.6495 5.33348 18.8646 5.52613 19.0663 5.72357C19.2412 5.89373 19.4071 6.06417 19.5682 6.24333C19.6579 6.34205 19.7431 6.44076 19.8238 6.5437C19.864 6.5932 19.9045 6.64692 19.9492 6.69614C20.012 6.77236 20.003 6.76336 19.9312 6.66942C19.9582 6.70514 19.9852 6.74114 20.012 6.77236C20.3303 7.19817 20.6126 7.64649 20.8592 8.1128C20.9846 8.35046 21.0968 8.58784 21.2043 8.82999C21.2985 9.04065 21.1325 8.65084 21.2178 8.86149C21.2358 8.90171 21.249 8.94221 21.267 8.98693C21.3252 9.13487 21.3792 9.27831 21.4284 9.42624C21.6033 9.94178 21.7332 10.4708 21.8274 11.0043C21.8406 11.0716 21.8496 11.1388 21.8586 11.206C21.8946 11.4392 21.8361 11.0043 21.8631 11.2417C21.8766 11.3807 21.8946 11.5196 21.9036 11.6588C21.9438 11.9367 21.9528 12.2191 21.9528 12.5014C21.9528 12.9723 22.3651 13.4206 22.8493 13.3981C23.3333 13.3756 23.7455 13.0035 23.7455 12.5014C23.7365 10.1122 22.9792 7.72271 21.5316 5.80851C20.003 3.78688 17.8697 2.2895 15.4089 1.63053C13.141 1.02556 10.649 1.1375 8.46178 1.99812C6.42249 2.80053 4.68774 4.14098 3.38801 5.90273C2.11528 7.62877 1.39343 9.73112 1.26802 11.8695C1.1201 14.4426 1.88667 17.083 3.42851 19.1449C4.83115 21.0188 6.73603 22.431 8.95923 23.1794C11.1197 23.9056 13.531 23.9371 15.7137 23.2826C17.7263 22.6819 19.5772 21.5029 20.9531 19.9161C22.3429 18.3157 23.3063 16.3343 23.6111 14.2275C23.6918 13.6534 23.75 13.0797 23.75 12.4969C23.75 12.0264 23.3378 11.5781 22.8538 11.6003C22.3651 11.6273 21.9573 11.9994 21.9528 12.5014Z" fill="white"/>
</svg>
