<svg width="72" height="70" viewBox="0 0 72 70" fill="none" xmlns="http://www.w3.org/2000/svg">
<path d="M36.1 35.5996C34 35.7996 32.2 35.2996 30.4 34.3996C21.6 29.9996 12.8 25.5996 3.9 21.0996C3.2 20.7996 2.5 20.3996 2 19.8996C0.5 18.5996 0.5 17.0996 2 15.8996C2.6 15.3996 3.4 14.9996 4.2 14.5996C12.8 10.2996 21.5 5.99961 30.1 1.59961C34.1 -0.400391 38.1 -0.400391 42.1 1.59961C50.7 5.89961 59.3 10.1996 68 14.4996C68.5 14.7996 69.1 14.9996 69.6 15.3996C72 16.8996 71.9 18.7996 69.5 20.3996C69 20.7996 68.5 20.9996 68 21.2996C59.3 25.5996 50.6 29.9996 41.9 34.3996C40.1 35.2996 38.2 35.8996 36.1 35.5996Z" fill="#172B4D"/>
<path d="M35.5003 52.9998C33.5003 53.1998 31.6003 52.5998 29.7003 51.6998C20.7003 47.1998 11.8003 42.6998 2.80029 38.1998C1.40029 37.4998 0.300287 36.5998 0.700287 34.7998C0.900287 33.4998 1.90029 32.6998 3.20029 32.4998C4.30029 32.2998 5.30029 32.8998 6.20029 33.3998C14.4003 37.4998 22.7003 41.5998 30.8003 45.7998C34.4003 47.5998 37.6003 47.6998 41.2003 45.7998C49.3003 41.5998 57.5003 37.5998 65.6003 33.4998C66.3003 33.0998 67.1003 32.6998 67.9003 32.4998C69.3003 32.1998 70.4003 32.7998 71.1003 34.0998C71.8003 35.2998 71.4003 36.4998 70.4003 37.3998C69.8003 37.8998 69.1003 38.2998 68.5003 38.5998C60.2003 42.7998 52.0003 46.9998 43.7003 51.0998C41.2003 52.3998 38.5003 53.0998 35.5003 52.9998Z" fill="#172B4D"/>
<path d="M36.1003 69.7995C33.7003 69.9995 31.5004 69.2994 29.3004 68.1994C20.7003 63.8994 12.2004 59.6995 3.60035 55.3995C2.90035 54.9995 2.10035 54.5995 1.50035 54.0995C0.500351 53.1995 0.300351 51.9995 1.00035 50.7995C1.80035 49.5995 2.80035 48.8995 4.30035 49.3995C5.00035 49.5995 5.70035 49.9995 6.40035 50.2995C14.6004 54.3995 22.9004 58.4994 31.0004 62.6994C34.4004 64.4994 37.6004 64.4994 41.0004 62.6994C49.4004 58.3994 57.8003 54.1995 66.2003 49.9995C67.4003 49.3995 68.5004 48.7995 69.8004 49.5995C71.6004 50.5995 71.8003 53.0995 70.2003 54.3995C69.6003 54.8995 68.9003 55.1995 68.2003 55.4995C59.8003 59.6995 51.3004 63.8995 42.9004 68.0995C40.9004 69.1995 38.6003 69.9995 36.1003 69.7995Z" fill="#172B4D"/>
</svg>
