<svg width="23" height="23" viewBox="0 0 23 23" fill="none" xmlns="http://www.w3.org/2000/svg">
<g opacity="0.25">
<rect x="0.804688" y="10.1428" width="3.37271" height="4" fill="#172B4D"/>
<rect x="0.804688" y="15" width="3.37271" height="4" fill="#172B4D"/>
<rect x="5.30078" y="10.1428" width="3.37271" height="4" fill="#172B4D"/>
<rect x="9.79688" y="10.1428" width="3.37271" height="4" fill="#172B4D"/>
<rect x="14.293" y="10.1428" width="3.37271" height="4" fill="#172B4D"/>
<rect x="0.804688" y="4.71436" width="3.37271" height="4" fill="#172B4D"/>
<rect x="5.30078" y="4.71436" width="3.37271" height="4" fill="#172B4D"/>
<rect x="9.79688" y="4.71436" width="3.37271" height="4" fill="#172B4D"/>
<rect x="14.293" y="4.71436" width="3.37271" height="4" fill="#172B4D"/>
<rect x="5.30078" y="15" width="3.37271" height="4" fill="#172B4D"/>
<rect x="9.79688" y="15" width="3.37271" height="4" fill="#172B4D"/>
<path d="M0.804688 3.57143C0.804688 2.15127 1.95596 1 3.37612 1H15.0968C16.517 1 17.6682 2.15127 17.6682 3.57143V3.57143H0.804688V3.57143Z" fill="#172B4D"/>
<rect x="3.75586" width="1.96741" height="3" fill="#172B4D"/>
<rect x="12.6094" width="1.96741" height="3" fill="#172B4D"/>
</g>
<path d="M19.9912 20.5355C19.4748 20.0207 18.9583 19.5059 18.4419 18.9911C18.3686 18.9177 18.2953 18.8444 18.222 18.7711C18.2538 18.846 18.2841 18.9209 18.316 18.9958C18.316 18.4077 18.316 17.8196 18.316 17.233C18.316 17.1485 18.316 17.0656 18.316 16.9812C18.316 16.8138 18.1694 16.6544 17.9972 16.6624C17.8251 16.6704 17.6784 16.8027 17.6784 16.9812C17.6784 17.6283 17.6784 18.2754 17.6784 18.9225C17.6784 18.948 17.6768 18.9719 17.6784 18.9974C17.6832 19.0979 17.7263 19.1791 17.7948 19.2461C17.8761 19.3274 17.9574 19.4087 18.0403 19.4899C18.3351 19.7832 18.6284 20.0765 18.9233 20.3698C19.1289 20.5754 19.3361 20.781 19.5417 20.9866C19.6596 21.1046 19.8764 21.1141 19.9928 20.9866C20.1075 20.8591 20.1171 20.6615 19.9912 20.5355Z" fill="#BCC2CC"/>
<path d="M21.3622 19.0005C21.3622 19.0898 21.359 19.179 21.3526 19.2683C21.3494 19.3129 21.3462 19.3559 21.3415 19.4006C21.3399 19.4165 21.3415 19.4516 21.3335 19.4659C21.3399 19.4181 21.3415 19.4101 21.3367 19.4468C21.3351 19.4611 21.3319 19.4755 21.3303 19.4898C21.3032 19.6604 21.265 19.8293 21.214 19.9951C21.1916 20.07 21.1661 20.1433 21.1374 20.2166C21.1231 20.2533 21.1119 20.3011 21.0912 20.3346C21.1359 20.2661 21.0992 20.3139 21.0896 20.3362C21.0785 20.3617 21.0657 20.3872 21.0546 20.4127C20.9828 20.5641 20.9 20.7123 20.8075 20.8526C20.7613 20.9227 20.7135 20.9913 20.6625 21.0582C20.6433 21.0837 20.6593 21.0853 20.6736 21.0439C20.6688 21.0598 20.6449 21.0805 20.6354 21.0933C20.6051 21.1315 20.5732 21.1682 20.5413 21.2048C20.4314 21.3308 20.3134 21.4487 20.1859 21.5571C20.154 21.5842 20.1221 21.6113 20.0903 21.6368C20.0775 21.648 20.0568 21.6703 20.0409 21.675C20.052 21.6671 20.0616 21.6591 20.0727 21.6511C20.0616 21.6591 20.0504 21.6687 20.0393 21.6766C19.9723 21.7261 19.9038 21.7739 19.8336 21.8201C19.6918 21.9109 19.5452 21.9922 19.3921 22.064C19.373 22.0735 19.3539 22.0815 19.3348 22.0895C19.3124 22.099 19.2646 22.1357 19.3332 22.091C19.2997 22.1134 19.2519 22.1245 19.2152 22.1373C19.1292 22.1691 19.0415 22.1994 18.9522 22.2249C18.7865 22.2743 18.6175 22.3094 18.4454 22.3349C18.3689 22.3461 18.5203 22.3269 18.4438 22.3349C18.4294 22.3365 18.4151 22.3381 18.4007 22.3397C18.3561 22.3445 18.3131 22.3477 18.2685 22.3509C18.1712 22.3572 18.074 22.3604 17.9768 22.3604C17.8875 22.3604 17.7999 22.3556 17.7106 22.3493C17.6628 22.3461 17.615 22.3413 17.5671 22.3349C17.548 22.3333 17.4715 22.3317 17.5576 22.3333C17.5273 22.3333 17.4938 22.3238 17.4635 22.319C17.2787 22.2871 17.0969 22.2425 16.92 22.1835C16.877 22.1692 16.8324 22.1532 16.7893 22.1373C16.767 22.1293 16.7463 22.1213 16.7256 22.1118C16.7112 22.1054 16.6363 22.0783 16.716 22.1086C16.6315 22.0767 16.5487 22.0337 16.4674 21.9922C16.3064 21.9093 16.1502 21.8121 16.0035 21.7069C15.9844 21.6942 15.9669 21.6798 15.9494 21.6671C15.8856 21.6209 16.0035 21.7101 15.9414 21.6623C15.9063 21.6336 15.8713 21.6049 15.8362 21.5762C15.7676 21.5173 15.7007 21.4567 15.637 21.3929C15.5732 21.3292 15.511 21.2638 15.4505 21.1953C15.4202 21.1618 15.3915 21.1267 15.3628 21.0917C15.3485 21.0742 15.3325 21.0566 15.3198 21.0391C15.3692 21.1124 15.3118 21.0279 15.3006 21.0136C15.1939 20.8669 15.0966 20.7123 15.0121 20.5514C14.9675 20.4653 14.9245 20.3776 14.8862 20.2884C14.9149 20.3569 14.8799 20.2724 14.8767 20.2629C14.8671 20.2374 14.8575 20.2119 14.848 20.1864C14.8257 20.1258 14.8049 20.0652 14.7858 20.0031C14.7555 19.9058 14.73 19.807 14.7077 19.7066C14.695 19.6524 14.6854 19.5966 14.6758 19.5408C14.6711 19.5137 14.6663 19.485 14.6631 19.458C14.6583 19.4197 14.6583 19.4213 14.6631 19.458C14.6615 19.4388 14.6583 19.4197 14.6567 19.4022C14.6344 19.195 14.6296 18.9846 14.6424 18.7774C14.6456 18.7327 14.6487 18.6897 14.6519 18.6451C14.6535 18.6228 14.6567 18.602 14.6583 18.5797C14.6615 18.5526 14.6535 18.4952 14.6583 18.5781C14.6535 18.4984 14.687 18.3996 14.7029 18.3215C14.738 18.1542 14.7858 17.9884 14.8448 17.8274C14.8591 17.7876 14.8751 17.7477 14.891 17.7079C14.8942 17.7015 14.8958 17.6951 14.899 17.6887C14.9117 17.6569 14.9101 17.6632 14.891 17.7063C14.891 17.6919 14.9101 17.6616 14.9165 17.6489C14.9516 17.5724 14.9882 17.4959 15.0281 17.4226C15.1094 17.2711 15.2002 17.1261 15.3022 16.989C15.3118 16.9747 15.323 16.9603 15.3341 16.9476C15.3771 16.8886 15.2895 17.0034 15.3357 16.946C15.3628 16.9141 15.3883 16.8806 15.4154 16.8488C15.4744 16.7802 15.5349 16.7133 15.5987 16.6479C15.6529 16.5937 15.7071 16.5411 15.7645 16.4901C15.7947 16.463 15.8266 16.4344 15.8585 16.4089C15.8744 16.3961 15.8904 16.3818 15.9063 16.369C15.9175 16.361 15.9286 16.3515 15.9382 16.3435C15.9653 16.3228 15.9605 16.326 15.9239 16.3547C15.9653 16.3021 16.0545 16.2574 16.1103 16.2208C16.1852 16.1698 16.2633 16.122 16.3414 16.0773C16.4084 16.0391 16.4769 16.004 16.5455 15.9689C16.5837 15.9498 16.622 15.9323 16.6602 15.9147C16.6825 15.9052 16.7304 15.8685 16.6618 15.9132C16.6841 15.8988 16.716 15.8908 16.7399 15.8813C16.8993 15.8191 17.0635 15.7681 17.2292 15.7283C17.3137 15.7075 17.3982 15.6916 17.4843 15.6773C17.5066 15.6741 17.5273 15.6709 17.5496 15.6677C17.6229 15.6565 17.4922 15.6741 17.5416 15.6693C17.5895 15.6645 17.6357 15.6581 17.6835 15.6549C17.8795 15.639 18.0756 15.6374 18.27 15.6518C18.3242 15.6565 18.3784 15.6613 18.4326 15.6677C18.5235 15.6773 18.3657 15.6565 18.4549 15.6709C18.482 15.6757 18.5075 15.6789 18.5346 15.6836C18.6446 15.7028 18.753 15.7267 18.8614 15.7554C18.9586 15.7809 19.0558 15.8111 19.1515 15.8462C19.2009 15.8637 19.2503 15.8829 19.2981 15.902C19.3794 15.9339 19.2391 15.8749 19.3188 15.91C19.3507 15.9243 19.3826 15.9387 19.4145 15.953C19.6025 16.0423 19.7811 16.1475 19.9516 16.267C19.9898 16.2941 20.0297 16.3196 20.0648 16.3499C20.0584 16.3435 20.0106 16.3068 20.0552 16.3435C20.0727 16.3578 20.0919 16.3722 20.1094 16.3881C20.1875 16.4519 20.264 16.5204 20.3357 16.5906C20.3979 16.6511 20.4569 16.7117 20.5142 16.7754C20.5461 16.8105 20.5764 16.8456 20.6051 16.8822C20.6194 16.8998 20.6338 16.9189 20.6497 16.9364C20.672 16.9635 20.6688 16.9603 20.6433 16.9269C20.6529 16.9396 20.6625 16.9524 20.672 16.9635C20.7852 17.1149 20.8856 17.2743 20.9733 17.4401C21.0179 17.5246 21.0578 17.609 21.096 17.6951C21.1295 17.77 21.0705 17.6314 21.1008 17.7063C21.1072 17.7206 21.1119 17.735 21.1183 17.7509C21.139 17.8035 21.1582 17.8545 21.1757 17.9071C21.2379 18.0904 21.2841 18.2785 21.3176 18.4682C21.3223 18.4921 21.3255 18.516 21.3287 18.5399C21.3415 18.6228 21.3207 18.4682 21.3303 18.5526C21.3351 18.602 21.3415 18.6514 21.3447 18.7009C21.359 18.7997 21.3622 18.9001 21.3622 19.0005C21.3622 19.1679 21.5088 19.3273 21.681 19.3193C21.8531 19.3113 21.9997 19.179 21.9997 19.0005C21.9965 18.151 21.7272 17.3014 21.2124 16.6208C20.6688 15.902 19.9102 15.3696 19.0351 15.1353C18.2286 14.9202 17.3424 14.96 16.5646 15.266C15.8394 15.5513 15.2225 16.0279 14.7603 16.6543C14.3077 17.268 14.051 18.0155 14.0064 18.7758C13.9538 19.6907 14.2264 20.6295 14.7747 21.3626C15.2735 22.0289 15.9509 22.531 16.7415 22.7971C17.5098 23.0553 18.3673 23.0665 19.1435 22.8338C19.8592 22.6202 20.5174 22.201 21.0067 21.6368C21.5009 21.0678 21.8435 20.3633 21.9519 19.6142C21.9806 19.4101 22.0013 19.2061 22.0013 18.9989C22.0013 18.8316 21.8547 18.6722 21.6826 18.6801C21.5088 18.6897 21.3638 18.822 21.3622 19.0005Z" fill="#BCC2CC"/>
</svg>
