<svg width="32" height="32" viewBox="0 0 32 32" fill="none" xmlns="http://www.w3.org/2000/svg">
<g clip-path="url(#clip0)">
<path d="M30.6768 15.6951C30.6768 23.9693 23.9693 30.6768 15.6951 30.6768C7.42095 30.6768 0.713415 23.9693 0.713415 15.6951C0.713415 7.42095 7.42095 0.713415 15.6951 0.713415C23.9693 0.713415 30.6768 7.42095 30.6768 15.6951Z" stroke="#0B1736" stroke-width="1.42683"/>
<path fill-rule="evenodd" clip-rule="evenodd" d="M16.633 24.9696H13.1533V16.7643H11.4146V13.937H13.1533V12.2396C13.1533 9.93325 14.1346 8.56104 16.9243 8.56104H19.2462V11.3893H17.795C16.709 11.3893 16.6372 11.7844 16.6372 12.5218L16.6324 13.937H19.2621L18.9543 16.7643H16.6324V24.9696H16.633Z" fill="#0B1736"/>
</g>
<defs>
<clipPath id="clip0">
<rect width="31.3902" height="31.3902" fill="white"/>
</clipPath>
</defs>
</svg>
