<svg width="37" height="36" viewBox="0 0 37 36" fill="none" xmlns="http://www.w3.org/2000/svg">
<g clip-path="url(#clip0)">
<path d="M17.3614 13.7525C16.8628 13.7525 16.471 13.3607 16.471 12.8621C16.471 12.3635 16.8628 11.9717 17.3614 11.9717H17.9313H20.6025H22.2052H25.0188H25.4462C25.9449 11.9717 26.3366 12.3635 26.3366 12.8621C26.3366 13.3607 25.9449 13.7525 25.4462 13.7525H25.0188H24.1641H18.608H17.9313H17.3614ZM10.7013 20.8756H16.1861H19.9258H25.4106C25.9092 20.8756 26.301 20.4839 26.301 19.9852C26.301 19.4866 25.9092 19.0948 25.4106 19.0948H21.4929H19.9258H16.2574H14.3697H10.7013C10.2027 19.0948 9.81089 19.4866 9.81089 19.9852C9.81089 20.4839 10.2383 20.8756 10.7013 20.8756ZM9.81089 16.4237C9.81089 16.9223 10.2027 17.3141 10.7013 17.3141H14.3697H16.6135H19.4984H21.4573H25.4106C25.9092 17.3141 26.301 16.9223 26.301 16.4237C26.301 15.925 25.9092 15.5333 25.4106 15.5333H18.7861H17.3971H10.7013C10.2383 15.5333 9.81089 15.925 9.81089 16.4237ZM21.8847 24.4372C22.2408 23.7961 22.6682 23.1907 23.1668 22.6564H19.6765H16.471H10.7013C10.2027 22.6564 9.81089 23.0482 9.81089 23.5468C9.81089 24.0454 10.2027 24.4372 10.7013 24.4372H14.3697H17.0765H19.071H21.4929H21.8847ZM10.7013 27.9988H16.3642H19.8189H20.8874C20.923 27.3933 21.0299 26.7879 21.1723 26.218H18.145H18.0381H10.7013C10.2027 26.218 9.81089 26.6098 9.81089 27.1084C9.81089 27.607 10.2383 27.9988 10.7013 27.9988ZM10.6301 31.5604H21.386C21.1723 30.9905 20.9943 30.3851 20.923 29.7796H10.6301C10.1314 29.7796 9.73966 30.1714 9.73966 30.67C9.73966 31.1686 10.1314 31.5604 10.6301 31.5604ZM9.77528 35.2644H24.1641C23.523 34.7658 22.9175 34.1603 22.4545 33.4836H9.77528C8.67119 33.4836 7.78079 32.5932 7.78079 31.4892V13.147H10.9506C13.0163 13.147 14.7259 11.4374 14.7259 9.37173V6.48685H26.5503C27.6544 6.48685 28.5448 7.37724 28.5448 8.48133V10.5114V20.0209C28.8297 19.9852 29.1147 19.9852 29.3996 19.9852C29.7201 19.9852 30.0051 19.9852 30.3256 20.0209V11.1169V10.5114V8.48133C30.3256 6.38 28.6517 4.70605 26.5503 4.70605H14.156C13.9423 4.70605 13.7286 4.74167 13.5149 4.8129C13.3012 4.88413 13.1232 5.0266 12.9807 5.16906L6.49862 11.4018C6.32054 11.5443 6.21369 11.758 6.10685 11.9717C6.03562 12.1498 6 12.3991 6 12.6128V31.4892C6 33.5549 7.67394 35.2644 9.77528 35.2644ZM29.364 21.9085C33.0324 21.9085 35.9885 24.8646 35.9885 28.533C35.9885 32.2015 33.0324 35.1576 29.364 35.1576C25.6955 35.1576 22.7394 32.2015 22.7394 28.533C22.7394 24.8646 25.7312 21.9085 29.364 21.9085ZM30.9311 31.4892C30.8242 31.5248 30.7174 31.596 30.6105 31.6316C30.4681 31.6672 30.3612 31.7385 30.2188 31.7385C30.0407 31.7741 29.9338 31.6672 29.8982 31.4892C29.8626 31.3823 29.8626 31.2398 29.8626 31.133C29.8982 30.8837 29.9338 30.6344 30.0051 30.3494C30.1475 29.5659 30.29 28.818 30.4324 28.0344C30.4681 27.8207 30.5037 27.607 30.5037 27.3933C30.5037 27.144 30.3612 27.0372 30.1119 27.0372C29.7557 27.0372 29.3996 27.0372 29.0434 27.0372C28.7229 27.0372 28.3667 27.0372 28.0462 27.0372C27.975 27.0372 27.8681 27.0372 27.7969 27.0728C27.6544 27.1084 27.5832 27.1796 27.5476 27.2865C27.5476 27.3933 27.5832 27.5002 27.7256 27.5714C27.8325 27.607 27.975 27.607 28.0818 27.6426C28.3667 27.6783 28.438 27.7851 28.438 28.07C28.438 28.1056 28.438 28.1413 28.438 28.2125C28.3311 28.8892 28.1887 29.5659 28.0818 30.2426C28.0106 30.6344 27.975 31.0261 27.9037 31.4179C27.8325 31.9878 28.3667 32.522 28.7941 32.5932C29.0434 32.6289 29.3284 32.6289 29.5777 32.6289C30.1475 32.6289 30.6105 32.3795 31.0023 31.9878C31.0735 31.9165 31.1448 31.8097 31.1448 31.7385C31.2516 31.5604 31.1092 31.4535 30.9311 31.4892ZM29.6489 24.4372C29.0434 24.4372 28.5804 24.9002 28.5448 25.5057C28.5448 26.1112 29.0078 26.6098 29.6133 26.6098C30.1831 26.6098 30.6818 26.1112 30.6818 25.5413C30.7174 24.9002 30.2544 24.4372 29.6489 24.4372Z" fill="#0B1736"/>
</g>
<defs>
<clipPath id="clip0">
<rect width="35.6158" height="35.6158" fill="white" transform="translate(0.582031)"/>
</clipPath>
</defs>
</svg>
