<svg width="17" height="17" viewBox="0 0 17 17" fill="none" xmlns="http://www.w3.org/2000/svg">
<path d="M8.5 0C3.81158 0 0 3.81158 0 8.5C0 13.1884 3.81158 17 8.5 17C13.1884 17 17 13.1884 17 8.5C17 3.81158 13.1884 0 8.5 0ZM9.44842 12.7411C9.44842 13.26 9.01895 13.6895 8.5 13.6895C7.98105 13.6895 7.55158 13.26 7.55158 12.7411V7.99895C7.55158 7.48 7.98105 7.05053 8.5 7.05053C9.01895 7.05053 9.44842 7.48 9.44842 7.99895V12.7411ZM8.5 5.83368C7.82 5.83368 7.26526 5.27895 7.26526 4.59895C7.26526 3.91895 7.82 3.36421 8.5 3.36421C9.18 3.36421 9.73474 3.91895 9.73474 4.59895C9.73474 5.27895 9.18 5.83368 8.5 5.83368Z" fill="white"/>
</svg>
