<svg width="32" height="32" viewBox="0 0 32 32" fill="none" xmlns="http://www.w3.org/2000/svg">
<g clip-path="url(#clip0)">
<path d="M31.2867 15.6951C31.2867 23.9693 24.5792 30.6768 16.305 30.6768C8.03082 30.6768 1.32328 23.9693 1.32328 15.6951C1.32328 7.42095 8.03082 0.713415 16.305 0.713415C24.5792 0.713415 31.2867 7.42095 31.2867 15.6951Z" stroke="#0B1736" stroke-width="1.42683"/>
<path fill-rule="evenodd" clip-rule="evenodd" d="M9.53057 13.1362H12.3116V22.8283H9.53057V13.1362ZM10.8502 11.9239H10.83C9.82333 11.9239 9.17065 11.183 9.17065 10.2448C9.17065 9.28733 9.84263 8.56104 10.8695 8.56104C11.8955 8.56104 12.5263 9.2855 12.5465 10.242C12.5465 11.1803 11.8955 11.9239 10.8502 11.9239V11.9239ZM23.439 22.8293H20.2856V17.8128C20.2856 16.5 19.7923 15.6047 18.7076 15.6047C17.8779 15.6047 17.4165 16.2085 17.2017 16.7923C17.1212 17.0006 17.1337 17.292 17.1337 17.5844V22.8293H14.0096C14.0096 22.8293 14.0499 13.9438 14.0096 13.1362H17.1337V14.6573C17.3183 13.9922 18.3166 13.043 19.9097 13.043C21.8862 13.043 23.439 14.438 23.439 17.4391V22.8293V22.8293Z" fill="black"/>
</g>
<defs>
<clipPath id="clip0">
<rect width="31.3902" height="31.3902" fill="white" transform="translate(0.609863)"/>
</clipPath>
</defs>
</svg>
