<?xml version="1.0" encoding="utf-8"?>
<!-- Generator: Adobe Illustrator 23.0.4, SVG Export Plug-In . SVG Version: 6.00 Build 0)  -->
<svg version="1.1" id="Layer_1" xmlns="http://www.w3.org/2000/svg" xmlns:xlink="http://www.w3.org/1999/xlink" x="0px" y="0px"
	 viewBox="0 0 18.3 19.5" style="enable-background:new 0 0 18.3 19.5;" xml:space="preserve">
<style type="text/css">
	.st0{opacity:0.25;}
	.st1{fill:#172B4D;}
</style>
<g class="st0">
	<rect x="0.8" y="10.1" class="st1" width="3.4" height="4"/>
	<rect x="0.8" y="15" class="st1" width="3.4" height="4"/>
	<rect x="5.3" y="10.1" class="st1" width="3.4" height="4"/>
	<rect x="9.8" y="10.1" class="st1" width="3.4" height="4"/>
	<rect x="14.3" y="10.1" class="st1" width="3.4" height="4"/>
	<rect x="0.8" y="4.7" class="st1" width="3.4" height="4"/>
	<rect x="5.3" y="4.7" class="st1" width="3.4" height="4"/>
	<rect x="9.8" y="4.7" class="st1" width="3.4" height="4"/>
	<rect x="14.3" y="4.7" class="st1" width="3.4" height="4"/>
	<rect x="5.3" y="15" class="st1" width="3.4" height="4"/>
	<rect x="9.8" y="15" class="st1" width="3.4" height="4"/>
	<rect x="14.3" y="15" class="st1" width="3.4" height="4"/>
	<path class="st1" d="M0.8,3.6C0.8,2.2,2,1,3.4,1h11.7c1.4,0,2.6,1.2,2.6,2.6l0,0H0.8L0.8,3.6z"/>
	<rect x="3.8" class="st1" width="2" height="3"/>
	<rect x="12.6" class="st1" width="2" height="3"/>
</g>
</svg>
