<svg width="9" height="8" viewBox="0 0 9 8" fill="none" xmlns="http://www.w3.org/2000/svg">
<path opacity="0.5" fill-rule="evenodd" clip-rule="evenodd" d="M8.25961 1.02703C8.39557 0.897297 8.39557 0.702703 8.25961 0.572973L7.80641 0.118919C7.67045 -0.0108108 7.46651 -0.0108108 7.33055 0.118919L4.36207 2.95135C4.27143 3.03784 4.13547 3.03784 4.04483 2.95135L1.07636 0.0972973C0.940395 -0.0324324 0.736454 -0.0324324 0.600493 0.0972973L0.124631 0.551351C-0.0113301 0.681081 -0.0113301 0.875676 0.124631 1.00541L3.09311 3.83784C3.18375 3.92432 3.18375 4.05405 3.09311 4.14054L0.101971 6.99459C-0.0339902 7.12432 -0.0339902 7.31892 0.101971 7.44865L0.577833 7.9027C0.713794 8.03243 0.917735 8.03243 1.0537 7.9027L4.02217 5.07027C4.11281 4.98378 4.24877 4.98378 4.33941 5.07027L7.30789 7.9027C7.44385 8.03243 7.64779 8.03243 7.78375 7.9027L8.25961 7.44865C8.39557 7.31892 8.39557 7.12432 8.25961 6.99459L5.3138 4.16216C5.22316 4.07568 5.22316 3.94595 5.3138 3.85946L8.25961 1.02703Z" fill="#181F31"/>
</svg>
