<svg width="296" height="296" viewBox="0 0 296 296" fill="none" xmlns="http://www.w3.org/2000/svg">
<circle cx="148" cy="148" r="148" fill="#6194C5"/>
<path d="M134.542 64C131.696 64 129.352 66.3473 129.352 69.1976V87.8084C120.48 90.6587 112.277 95.3533 105.413 101.725L89.3416 92.3353C86.8305 90.8263 83.6497 91.8323 82.1431 94.3473L68.7504 117.653C67.2437 120.168 68.0807 123.353 70.5919 124.862L85.9935 133.749C84.989 138.443 83.9846 143.138 83.9846 148C83.9846 152.862 84.989 157.557 86.1609 162.251L70.7593 171.138C68.2481 172.647 67.4111 175.832 68.9178 178.347L82.3105 201.653C83.8172 204.168 86.9979 205.006 89.5091 203.665L105.58 194.443C112.444 200.814 120.647 205.509 129.52 208.192V226.802C129.52 229.653 131.863 232 134.709 232H161.495C164.341 232 166.684 229.653 166.684 226.802V207.856C175.557 205.006 183.76 200.311 190.624 193.94L206.695 203.329C209.206 204.838 212.387 203.832 213.894 201.485L227.286 178.18C228.793 175.665 227.789 172.479 225.445 170.97L209.876 162.084C210.88 157.389 212.052 152.695 212.052 147.832C212.052 142.97 211.048 138.275 209.876 133.581L225.278 124.695C227.789 123.186 228.626 120 227.286 117.485L213.894 94.1796C212.387 91.6647 209.206 90.8263 206.695 92.1677L190.624 101.389C183.76 95.018 175.557 90.3234 166.684 87.6407V69.1976C166.517 66.3473 164.173 64 161.327 64H134.542ZM139.732 74.3952H156.138V90.491C156.138 93.006 157.812 95.018 160.156 95.521C170.367 97.8683 179.742 103.234 186.941 110.946C188.615 112.79 191.294 113.126 193.47 111.952L207.365 103.904L215.568 118.156L201.506 126.371C199.329 127.545 198.492 130.06 199.162 132.407C200.668 137.437 201.506 142.635 201.506 147.832C201.506 153.03 200.668 158.228 199.162 163.257C198.492 165.605 199.497 168.12 201.506 169.293L215.4 177.341L207.197 191.593L193.302 183.545C191.126 182.371 188.448 182.707 186.774 184.383C179.575 192.096 170.367 197.461 159.988 199.808C157.644 200.311 155.97 202.491 155.97 204.838V220.934H139.564V204.838C139.564 202.323 137.89 200.311 135.546 199.808C125.335 197.461 115.96 192.096 108.761 184.383C107.087 182.539 104.408 182.204 102.4 183.377L88.5046 191.425L80.3016 177.174L94.1965 169.126C96.3728 167.952 97.3773 165.437 96.5402 163.09C95.0335 158.06 94.1965 152.862 94.1965 147.665C94.1965 142.467 95.0335 137.269 96.5402 132.24C97.2099 129.892 96.2054 127.377 94.1965 126.204L80.3016 118.156L88.5046 103.904L102.4 111.952C104.576 113.126 107.087 112.79 108.761 110.946C115.96 103.234 125.335 97.8683 135.546 95.521C137.89 95.018 139.564 92.8383 139.564 90.491V74.3952H139.732ZM166.015 129.389C165.847 129.389 165.68 129.389 165.513 129.389C162.667 129.725 160.49 132.24 160.825 135.09C160.993 136.263 161.495 137.437 162.332 138.275L171.707 147.832L162.332 157.222C160.323 159.234 160.156 162.587 162.164 164.599C164.173 166.611 167.522 166.778 169.53 164.766L169.698 164.599L182.756 151.521C184.765 149.509 184.765 146.156 182.756 144.144L169.698 131.066C168.693 129.892 167.354 129.389 166.015 129.389ZM129.687 129.389C128.348 129.389 127.009 130.06 126.172 130.898L113.114 143.976C111.105 145.988 111.105 149.341 113.114 151.353L126.172 164.599C128.013 166.778 131.361 167.114 133.538 165.102C135.714 163.257 136.049 159.904 134.04 157.725C133.872 157.557 133.705 157.389 133.538 157.222L124.163 147.832L133.538 138.275C135.546 136.263 135.546 132.91 133.538 130.898C132.533 129.892 131.194 129.389 129.687 129.389ZM151.618 129.892C151.45 129.892 151.283 129.892 151.115 129.892C148.772 130.06 146.93 131.569 146.261 133.749L139.564 159.234C138.727 161.916 140.234 164.934 142.912 165.772C145.591 166.611 148.604 165.102 149.441 162.419C149.441 162.251 149.609 162.084 149.609 161.916L156.305 136.599C157.142 133.749 155.468 130.898 152.622 130.06C152.455 129.892 151.953 129.892 151.618 129.892Z" fill="white"/>
</svg>
