<svg width="311" height="114" viewBox="0 0 311 114" fill="none" xmlns="http://www.w3.org/2000/svg">
<g clip-path="url(#clip0)">
<path d="M271.809 7.3126e-05C250.317 -0.253261 233.124 16.9734 232.871 38.5068C232.618 59.7868 249.811 77.2668 271.303 77.5201C292.542 77.7734 309.989 60.5468 310.241 39.2668V39.0134C310.241 17.4801 293.048 7.3126e-05 271.809 7.3126e-05ZM269.786 54.7201H261.948L253.351 38.0001V54.7201H246.777V26.8534H255.121L263.212 43.3201V26.8534H269.786V54.7201ZM296.841 32.9334L282.681 48.6401H296.588V54.9734H273.579V49.1468L287.991 33.1868H274.084V27.1068H296.841V32.9334Z" fill="white"/>
<path d="M220.481 101.333C220.481 101.84 220.228 102.093 219.723 102.093H217.194C214.413 102.093 212.896 103.36 212.896 105.893C212.896 108.427 214.413 109.693 217.194 109.693C218.459 109.693 219.723 109.187 220.734 108.173V109.44H223.263V101.333C223.263 98.8 221.493 97.0267 218.206 97.0267C216.436 97.0267 214.666 97.5333 213.402 98.8L214.666 100.827C215.677 100.067 216.689 99.56 217.953 99.56C219.217 99.3067 220.228 100.067 220.481 101.333ZM217.447 107.667C215.93 107.667 215.424 106.907 215.424 105.893C215.424 104.88 216.183 104.12 217.447 104.12H218.964C219.47 104.12 219.723 104.12 220.228 103.867V104.88C220.228 106.4 219.217 107.413 217.953 107.667C217.953 107.667 217.953 107.667 217.7 107.667H217.447ZM208.598 103.36C208.598 105.387 206.828 106.907 204.805 106.907C202.782 106.907 201.265 105.133 201.265 103.107C201.265 101.08 203.035 99.56 205.058 99.56C207.08 99.56 208.598 101.08 208.598 103.107C208.598 102.853 208.598 103.107 208.598 103.36ZM198.484 103.36C198.484 106.907 201.265 109.693 204.805 109.947C208.345 109.947 211.126 107.16 211.379 103.613C211.379 100.067 208.598 97.28 205.058 97.0267C201.771 97.0267 198.737 99.56 198.737 103.107C198.484 102.853 198.484 103.107 198.484 103.36ZM197.472 97.0267H196.461C194.944 97.0267 193.68 97.7867 193.174 99.3067V97.28H190.646V109.44H193.174V103.36C193.174 100.573 194.185 99.56 195.955 99.56H197.22L197.472 97.0267ZM185.083 101.333C185.083 101.84 184.83 102.093 184.324 102.093H181.796C179.015 102.093 177.498 103.36 177.498 105.893C177.498 108.427 179.015 109.693 181.796 109.693C183.06 109.693 184.324 109.187 185.336 108.173V109.44H187.864V101.333C187.864 98.8 186.094 97.0267 182.807 97.0267C181.037 97.0267 179.267 97.5333 178.003 98.8L179.267 100.827C180.279 100.067 181.29 99.56 182.554 99.56C184.072 99.3067 185.083 100.067 185.083 101.333ZM182.302 107.667C180.785 107.667 180.279 106.907 180.279 105.893C180.279 104.88 181.037 104.12 182.302 104.12H183.819C184.324 104.12 184.577 104.12 185.083 103.867V104.88C185.083 106.4 184.072 107.413 182.807 107.667C182.807 107.667 182.807 107.667 182.554 107.667H182.302ZM170.165 99.3067C171.935 99.3067 173.199 100.573 173.199 102.347H166.878C167.131 100.573 168.395 99.3067 170.165 99.3067ZM176.233 104.12C176.233 99.0533 173.199 97.0267 170.165 97.0267C166.878 97.0267 164.097 99.56 164.097 102.853C164.097 103.107 164.097 103.107 164.097 103.36C164.097 106.907 166.878 109.693 170.418 109.693C172.946 109.693 174.969 108.173 175.98 106.147H172.946C172.188 107.16 171.176 107.667 170.165 107.413C168.395 107.413 166.878 105.893 166.878 104.12H176.233ZM157.27 92.4667V97.28H155.247V99.56H157.27V106.907C157.27 109.187 159.04 109.44 160.557 109.44C161.568 109.44 162.833 109.44 162.833 109.44V107.16C162.327 107.16 161.821 107.16 161.315 107.16C160.81 107.16 160.051 106.907 160.051 106.147V99.56H162.833V97.28H160.051V92.4667H157.27ZM151.707 103.36C151.707 105.387 149.937 106.907 147.915 106.907C145.892 106.907 144.375 105.133 144.375 103.107C144.375 101.08 146.145 99.56 148.167 99.56C149.937 99.56 151.707 101.08 151.707 103.36C151.707 103.107 151.707 103.107 151.707 103.36ZM141.593 103.36C141.593 106.907 144.375 109.693 147.915 109.947C151.454 109.947 154.236 107.16 154.489 103.613C154.489 100.067 151.707 97.28 148.167 97.0267C144.628 97.0267 141.846 99.56 141.846 103.107C141.593 102.853 141.593 103.107 141.593 103.36ZM135.272 101.08H130.468L132.997 93.48L135.272 101.08ZM134.514 90.44H130.974L124.906 109.187H127.94L129.71 103.36H135.778L137.801 109.187H140.835L134.514 90.44ZM116.309 101.333C116.309 101.84 116.056 102.093 115.55 102.093H113.022C110.241 102.093 108.724 103.36 108.724 105.893C108.724 108.427 110.241 109.693 113.022 109.693C114.286 109.693 115.55 109.187 116.309 108.173V109.44H118.837V101.333C118.837 98.8 117.067 97.0267 113.78 97.0267C112.011 97.0267 110.241 97.5333 108.976 98.5467L110.241 100.573C111.252 99.8133 112.516 99.3067 113.78 99.3067C115.298 99.3067 116.309 99.8133 116.309 101.333ZM113.528 107.667C112.011 107.667 111.505 106.907 111.505 105.893C111.505 104.88 112.263 104.12 113.528 104.12H115.045C115.55 104.12 115.803 104.12 116.309 103.867V104.88C116.309 106.4 115.298 107.413 114.033 107.667C114.033 107.667 114.033 107.667 113.78 107.667H113.528ZM96.3341 103.36C96.3341 101.333 98.1041 99.8133 100.127 99.8133C102.15 99.8133 103.667 101.587 103.667 103.613C103.667 105.64 101.897 107.16 99.874 107.16C97.8512 107.16 96.3341 105.64 96.3341 103.613V103.36ZM103.667 97.28V99.0533C102.655 97.7867 101.138 96.7733 99.6211 97.0267C96.0813 97.0267 93.3 99.8133 93.3 103.36C93.3 106.907 96.0813 109.693 99.6211 109.693C101.138 109.693 102.655 108.933 103.667 107.667V110.707C103.667 111.72 102.908 111.973 102.15 111.973H97.5984V114H102.655C104.425 114 106.195 112.733 106.195 110.707C106.195 110.453 106.195 110.453 106.195 110.2V97.0267L103.667 97.28ZM83.1862 97.28H80.6577V109.44H83.1862V101.08C83.9447 100.067 85.2089 99.3067 86.4732 99.3067C87.7374 99.3067 88.7488 100.067 89.0016 101.333C89.0016 101.587 89.0016 101.587 89.0016 101.84V109.44H91.5301V101.333C91.7829 99.0533 90.013 97.0267 87.7374 96.7733H86.9789C85.4618 96.7733 83.9447 97.5333 82.9333 98.8L83.1862 97.28ZM74.8423 101.333C74.8423 101.84 74.5894 102.093 74.0837 102.093H71.5553C68.774 102.093 67.2569 103.36 67.2569 105.893C67.2569 108.427 68.774 109.693 71.5553 109.693C72.8195 109.693 74.0837 109.187 75.0951 108.173V109.44H77.6236V101.333C77.6236 98.8 75.8537 97.0267 72.5667 97.0267C70.7967 97.0267 69.0268 97.5333 67.7626 98.8L69.0268 100.827C70.0382 100.067 71.0496 99.56 72.3138 99.56C73.8309 99.3067 74.8423 100.067 74.8423 101.333ZM72.061 107.667C70.5439 107.667 70.0382 106.907 70.0382 105.893C70.0382 104.88 70.7967 104.12 72.061 104.12H73.578C74.0837 104.12 74.3366 104.12 74.8423 103.867V104.88C74.8423 106.4 73.8309 107.413 72.5667 107.667C72.5667 107.667 72.5667 107.667 72.3138 107.667H72.061ZM66.2455 97.0267H65.2341C63.7171 97.0267 62.4528 97.7867 61.9472 99.0533V97.0267H59.4187V109.187H61.9472V103.107C61.9472 100.32 62.9585 99.3067 64.7285 99.3067H65.9927L66.2455 97.0267ZM51.0748 109.693C53.8561 109.947 56.1317 108.173 56.3846 105.387C56.3846 105.133 56.3846 105.133 56.3846 104.88V97.28H53.8561V104.627C54.1089 105.893 53.0976 107.16 51.5805 107.413H51.0748C49.8106 107.667 48.5463 106.653 48.2935 105.133C48.2935 104.88 48.2935 104.88 48.2935 104.627V97.28H45.5122V104.88C45.5122 107.667 47.7878 109.693 50.5691 109.693C50.822 109.693 51.0748 109.693 51.0748 109.693ZM40.2024 101.333C40.2024 101.84 39.9496 102.093 39.4439 102.093H36.9154C34.1341 102.093 32.6171 103.36 32.6171 105.893C32.6171 108.427 34.1341 109.693 36.9154 109.693C38.1797 109.693 39.4439 109.187 40.4553 108.173V109.44H42.9837V101.333C42.9837 98.8 41.2138 97.0267 37.9268 97.0267C36.1569 97.0267 34.387 97.5333 33.1228 98.8L34.387 100.827C35.3984 100.067 36.4098 99.56 37.674 99.56C39.1911 99.3067 40.2024 100.067 40.2024 101.333ZM37.4211 107.667C35.9041 107.667 35.3984 106.907 35.3984 105.893C35.3984 104.88 36.1569 104.12 37.4211 104.12H38.9382C39.4439 104.12 39.6967 104.12 40.2024 103.867V104.88C40.2024 106.4 39.1911 107.413 37.9268 107.667C37.9268 107.667 37.9268 107.667 37.674 107.667H37.4211ZM25.7902 92.2133V97.0267H23.7675V99.3067H25.7902V106.653C25.7902 108.933 27.5602 109.187 29.0772 109.187C30.0886 109.187 31.3528 109.187 31.3528 109.187V106.907C30.8472 106.907 30.3415 106.907 29.8358 106.907C29.3301 106.907 28.5715 106.653 28.5715 105.893V99.3067H31.3528V97.0267H28.5715V92.2133H25.7902ZM19.722 101.333C19.722 101.84 19.4691 102.093 18.9634 102.093H16.435C13.6537 102.093 12.1366 103.36 12.1366 105.893C12.1366 108.427 13.6537 109.693 16.435 109.693C17.6992 109.693 18.9634 109.187 19.9748 108.173V109.44H22.5033V101.333C22.5033 98.8 20.7333 97.0267 17.4463 97.0267C15.6764 97.0267 13.9065 97.5333 12.6423 98.5467L13.9065 100.573C14.9179 99.8133 15.9293 99.3067 17.1935 99.3067C18.4577 99.3067 19.4691 100.067 19.722 101.333ZM16.6878 107.667C15.1707 107.667 14.665 106.907 14.665 105.893C14.665 104.88 15.4236 104.12 16.6878 104.12H18.2049C18.7106 104.12 18.9634 104.12 19.4691 103.867V104.88C19.4691 106.4 18.4577 107.413 17.1935 107.667C17.1935 107.667 17.1935 107.667 16.9406 107.667H16.6878ZM0 90.44V92.9733H5.5626V109.187H8.3439V92.72H13.9065V90.1867L0 90.44ZM222.251 33.44C216.941 28.6267 209.862 26.0933 202.529 26.0933C190.898 26.0933 183.566 33.44 183.566 41.2933C183.566 47.88 186.853 53.2 194.944 55.7333L203.288 58.2667C207.333 59.5333 208.85 60.5467 208.85 63.08C208.85 65.1067 206.828 66.6267 203.541 66.6267C198.231 66.12 193.174 64.0933 189.128 60.5467L181.796 70.1733C187.864 75.4933 195.45 78.0267 203.288 77.7733C216.689 77.7733 222.757 69.4133 222.757 62.0667C222.757 55.48 219.47 50.16 209.356 46.8667L201.265 44.3333C198.737 43.32 197.725 42.3067 197.725 40.5333C197.725 38.76 198.989 37.24 202.529 37.24C207.08 37.24 211.379 39.2667 214.666 42.3067L222.251 33.44ZM151.707 8.61333V27.36H144.122V39.2667H151.707V66.12C151.707 76 158.787 77.2667 165.867 77.2667C169.912 77.2667 176.486 76.5067 176.486 76.5067V64.6C176.486 64.6 173.705 64.8533 170.165 64.8533C168.142 64.8533 165.614 64.3467 165.614 61.3067V39.0133H176.233V27.36H165.614V8.61333H151.707ZM63.2114 8.61333V27.36H55.626V39.2667H63.2114V66.12C63.2114 76 70.2911 77.2667 77.3707 77.2667C81.4163 77.2667 87.9902 76.5067 87.9902 76.5067V64.6C87.9902 64.6 85.2089 64.8533 81.6691 64.8533C79.3935 64.8533 77.1179 64.3467 77.1179 61.3067V39.0133H87.7374V27.36H77.1179V8.61333H63.2114ZM53.0976 10.64C46.0179 4.30667 37.1683 0 28.5715 0C15.4236 0 3.79268 8.10667 3.79268 21.28C3.79268 30.6533 10.1138 37.4933 19.9748 42.3067L25.2846 44.84C32.3642 48.1333 36.9154 51.1733 36.9154 56.24C36.9154 60.8 32.8699 64.3467 26.5488 64.3467C19.4691 63.84 13.148 60.5467 8.3439 55.48L0.252846 66.6267C7.33252 73.9733 16.9406 78.0267 27.0545 78.0267C43.4894 78.0267 52.8447 67.1333 52.8447 55.7333C52.8447 44.3333 45.5122 38 33.8813 32.68L27.5602 29.8933C21.4919 27.1067 19.4691 24.32 19.4691 21.0267C19.4691 16.4667 24.0203 13.9333 28.8244 13.9333C33.6285 13.9333 39.9496 17.2267 44.5008 21.7867L53.0976 10.64ZM123.389 55.48V59.0267C123.389 65.1067 118.837 67.64 114.033 67.64C109.735 67.64 107.207 65.1067 107.207 61.8133C107.207 58.52 109.735 56.4933 114.033 56.4933H119.343C120.607 56.7467 122.124 56.24 123.389 55.48ZM143.869 77.2667V65.6133C143.869 65.6133 144.122 65.6133 140.835 65.6133C138.812 65.6133 137.042 65.1067 137.042 62.0667V44.3333C137.042 31.4133 126.928 26.0933 115.803 26.0933C108.471 26.3467 101.138 28.3733 94.8171 32.1733L100.127 42.56C104.678 39.7733 109.735 38.2533 114.792 38C120.102 38 122.883 40.28 122.883 43.8267V44.3333C122.883 46.1067 121.872 47.12 119.596 47.12H109.988C99.1154 47.12 92.2886 52.9467 92.2886 62.32C92.2886 70.4267 99.1154 77.7733 109.229 77.7733C114.792 77.7733 120.354 75.7467 122.883 71.9467L123.389 70.9333C125.159 77.0133 130.974 77.7733 136.789 77.7733C139.571 78.0267 141.593 77.7733 143.869 77.2667Z" fill="white"/>
</g>
<defs>
<clipPath id="clip0">
<rect width="311" height="114" fill="white"/>
</clipPath>
</defs>
</svg>
