<svg width="29" height="29" viewBox="0 0 29 29" fill="none" xmlns="http://www.w3.org/2000/svg">
<path fill-rule="evenodd" clip-rule="evenodd" d="M0 14.5C0 6.50332 6.50332 0 14.5 0C22.4967 0 29 6.50332 29 14.5C29 22.4967 22.4967 29 14.5 29C6.50332 29 0 22.4967 0 14.5ZM27.0667 14.5C27.0667 7.54817 21.4518 1.93333 14.5 1.93333C7.54817 1.93333 1.93333 7.54817 1.93333 14.5C1.93333 17.9861 3.34433 21.1372 5.62882 23.4115C5.63792 23.3856 5.64707 23.3597 5.65628 23.3339C6.14908 23.8273 6.6829 24.2796 7.25219 24.6855C7.24469 24.7105 7.23725 24.7356 7.22986 24.7608C9.28137 26.2168 11.787 27.0667 14.5 27.0667C17.213 27.0667 19.7186 26.2168 21.7701 24.7608C21.7628 24.7356 21.7553 24.7105 21.7478 24.6855C22.3171 24.2796 22.8509 23.8273 23.3437 23.3339C23.3529 23.3597 23.3621 23.3856 23.3712 23.4115C25.6557 21.1372 27.0667 17.9861 27.0667 14.5Z" fill="white"/>
<path d="M9.69995 11.7C9.69995 10.5133 10.12 9.52 10.96 8.72C11.8 7.90667 12.8933 7.5 14.24 7.5C15.64 7.5 16.74 7.88667 17.54 8.66C18.34 9.43333 18.74 10.4067 18.74 11.58C18.74 12.1933 18.6133 12.7667 18.36 13.3C18.12 13.8333 17.82 14.2867 17.46 14.66C17.1133 15.02 16.76 15.36 16.4 15.68C16.0533 16 15.7533 16.3333 15.5 16.68C15.26 17.0133 15.14 17.3467 15.14 17.68L15.18 18.12H12.86C12.82 17.9733 12.8 17.82 12.8 17.66C12.8 17.1 12.92 16.58 13.16 16.1C13.4 15.62 13.6933 15.2133 14.04 14.88C14.3867 14.5333 14.7333 14.2 15.08 13.88C15.4267 13.56 15.72 13.22 15.96 12.86C16.2 12.4867 16.32 12.1 16.32 11.7C16.32 11.0867 16.1333 10.6 15.76 10.24C15.4 9.86667 14.8933 9.68 14.24 9.68C13.5867 9.68 13.0667 9.88667 12.68 10.3C12.2933 10.7 12.1 11.22 12.1 11.86L12.2 12.76H9.79995C9.73328 12.4933 9.69995 12.14 9.69995 11.7ZM14.12 22.16C13.6533 22.16 13.2733 22.02 12.98 21.74C12.7 21.4467 12.56 21.0733 12.56 20.62C12.56 20.1667 12.7067 19.8 13 19.52C13.2933 19.2267 13.6667 19.08 14.12 19.08C14.5733 19.08 14.9467 19.2267 15.24 19.52C15.5333 19.8 15.68 20.1667 15.68 20.62C15.68 21.0733 15.5333 21.4467 15.24 21.74C14.9467 22.02 14.5733 22.16 14.12 22.16Z" fill="white"/>
</svg>
