<svg width="33" height="32" viewBox="0 0 33 32" fill="none" xmlns="http://www.w3.org/2000/svg">
<g clip-path="url(#clip0)">
<path d="M31.4818 15.6951C31.4818 23.9693 24.7742 30.6768 16.5001 30.6768C8.22588 30.6768 1.51835 23.9693 1.51835 15.6951C1.51835 7.42095 8.22588 0.713415 16.5001 0.713415C24.7742 0.713415 31.4818 7.42095 31.4818 15.6951Z" stroke="#0B1736" stroke-width="1.42683"/>
<path fill-rule="evenodd" clip-rule="evenodd" d="M22.5828 12.018C23.2177 11.6173 23.7049 10.982 23.9335 10.2252C23.339 10.5971 22.6822 10.8661 21.9813 11.0117C21.422 10.381 20.6227 9.98779 19.7381 9.98779C18.0409 9.98779 16.6656 11.4393 16.6656 13.2292C16.6656 13.4833 16.6911 13.731 16.7438 13.9675C14.1902 13.8321 11.9258 12.5429 10.4089 10.5804C10.1442 11.0609 9.99295 11.6173 9.99295 12.2109C9.99295 13.335 10.5355 14.3273 11.3604 14.9098C10.8565 14.8931 10.3825 14.7456 9.96745 14.5045V14.5444C9.96745 16.1155 11.0262 17.4259 12.4341 17.7227C12.1755 17.7988 11.9047 17.8368 11.6233 17.8368C11.4254 17.8368 11.232 17.8173 11.0456 17.7793C11.436 19.0666 12.5712 20.0052 13.9167 20.0302C12.8641 20.9002 11.5389 21.4177 10.0994 21.4177C9.85138 21.4177 9.60603 21.4038 9.36597 21.3732C10.7263 22.2923 12.3417 22.8293 14.0776 22.8293C19.7319 22.8293 22.822 17.8897 22.822 13.6058C22.822 13.4648 22.8202 13.3248 22.8141 13.1866C23.4147 12.7293 23.937 12.158 24.3477 11.5079C23.7963 11.7657 23.2036 11.9401 22.5828 12.018Z" fill="#0B1736"/>
</g>
<defs>
<clipPath id="clip0">
<rect width="31.3902" height="31.3902" fill="white" transform="translate(0.804932)"/>
</clipPath>
</defs>
</svg>
