<svg width="24" height="21" viewBox="0 0 24 21" fill="none" xmlns="http://www.w3.org/2000/svg">
<path fill-rule="evenodd" clip-rule="evenodd" d="M23.7235 17.7874L13.1449 0.693016C12.5905 -0.231005 11.3895 -0.231005 10.8351 0.693016L0.25645 17.7874C-0.39028 18.85 0.25645 20.3285 1.41133 20.3285H22.5687C23.7235 20.3285 24.4165 18.85 23.7235 17.7874ZM11.99 16.6324C11.2047 16.6324 10.6041 16.0318 10.6041 15.2464C10.6041 14.4609 11.2047 13.8603 11.99 13.8603C12.7753 13.8603 13.3758 14.4609 13.3758 15.2464C13.3758 16.0318 12.7753 16.6324 11.99 16.6324ZM12.9139 12.9363C13.1911 12.9363 13.3758 12.7515 13.3758 12.4743V6.46815C13.3758 6.19094 13.1911 6.00614 12.9139 6.00614H11.0661C10.7889 6.00614 10.6041 6.19094 10.6041 6.46815V12.4743C10.6041 12.7515 10.7889 12.9363 11.0661 12.9363H12.9139Z" fill="white"/>
</svg>
